<?xml version="1.0" standalone="no"?><!DOCTYPE svg PUBLIC "-//W3C//DTD SVG 1.1//EN" "http://www.w3.org/Graphics/SVG/1.1/DTD/svg11.dtd"><svg t="1690090233021" class="icon" viewBox="0 0 1024 1024" version="1.1" xmlns="http://www.w3.org/2000/svg" p-id="8202" xmlns:xlink="http://www.w3.org/1999/xlink" width="200" height="200"><path d="M960 96v672c-126 46-164 64-238 64-126 0-174-64-300-64-40 0-72 8-102 16v-128c30-8 62-16 102-16 126 0 174 64 300 64 40 0 70-6 110-18V270c-40 12-70 18-110 18-126 0-174-64-300-64-102 0-150 42-230 58v614c0 36-28 64-64 64S64 932 64 896V128c0-36 28-64 64-64s64 28 64 64v26c80-16 128-58 230-58 126 0 174 64 300 64 74 0 112-18 238-64z" p-id="8203" fill="#1296db"></path></svg>