<?xml version="1.0" standalone="no"?><!DOCTYPE svg PUBLIC "-//W3C//DTD SVG 1.1//EN" "http://www.w3.org/Graphics/SVG/1.1/DTD/svg11.dtd"><svg t="1690090371811" class="icon" viewBox="0 0 1024 1024" version="1.1" xmlns="http://www.w3.org/2000/svg" p-id="6876" xmlns:xlink="http://www.w3.org/1999/xlink" width="200" height="200"><path d="M326.4 970.666667a202.666667 32 0 1 0 405.333333 0 202.666667 32 0 1 0-405.333333 0Z" fill="#45413C" opacity=".15" p-id="6877"></path><path d="M714.666667 490.666667v0l-19.2-19.2c-29.866667-17.066667-93.866667-29.866667-168.533334-29.866667s-138.666667 12.8-168.533333 29.866667c-6.4 6.4-12.8 10.666667-17.066667 17.066666v0c-38.4 44.8-61.866667 102.4-61.866666 166.4 0 138.666667 113.066667 249.6 249.6 249.6 138.666667 0 249.6-113.066667 249.6-249.6-2.133333-61.866667-25.6-119.466667-64-164.266666z" fill="#FFE500" p-id="6878"></path><path d="M714.666667 490.666667v0l-19.2-19.2c-8.533333-4.266667-19.2-8.533333-32-12.8 55.466667 42.666667 89.6 106.666667 89.6 181.333333 0 125.866667-102.4 228.266667-228.266667 228.266667C401.066667 868.266667 298.666667 765.866667 298.666667 640c0-74.666667 36.266667-138.666667 89.6-181.333333-12.8 4.266667-23.466667 8.533333-32 12.8-6.4 6.4-12.8 10.666667-17.066667 17.066666v0C300.8 533.333333 277.333333 590.933333 277.333333 654.933333c0 138.666667 113.066667 249.6 249.6 249.6 138.666667 0 249.6-113.066667 249.6-249.6 0-61.866667-23.466667-119.466667-61.866666-164.266666z" fill="#EBCB00" p-id="6879"></path><path d="M644.266667 718.933333a32 19.2 0 1 0 64 0 32 19.2 0 1 0-64 0Z" fill="#FFAA54" p-id="6880"></path><path d="M345.6 718.933333a32 19.2 0 1 0 64 0 32 19.2 0 1 0-64 0Z" fill="#FFAA54" p-id="6881"></path><path d="M398.933333 612.266667a27.733333 19.2 90 1 0 38.4 0 27.733333 19.2 90 1 0-38.4 0Z" fill="#45413C" p-id="6882"></path><path d="M616.533333 612.266667a27.733333 19.2 90 1 0 38.4 0 27.733333 19.2 90 1 0-38.4 0Z" fill="#45413C" p-id="6883"></path><path d="M526.933333 774.4m-55.466666 0a55.466667 55.466667 0 1 0 110.933333 0 55.466667 55.466667 0 1 0-110.933333 0Z" fill="#FF87AF" p-id="6884"></path><path d="M838.4 418.133333m-38.4 0a38.4 38.4 0 1 0 76.8 0 38.4 38.4 0 1 0-76.8 0Z" fill="#F0F0F0" p-id="6885"></path><path d="M238.933333 388.266667c-10.666667 2.133333-17.066667 8.533333-19.2 19.2-6.4-4.266667-14.933333-6.4-23.466666-6.4C170.666667 401.066667 149.333333 422.4 149.333333 448c0 25.6 21.333333 46.933333 46.933334 46.933333s46.933333-21.333333 46.933333-46.933333c0-4.266667 0-8.533333-2.133333-12.8h6.4c12.8-2.133333 21.333333-14.933333 19.2-27.733333-2.133333-12.8-14.933333-21.333333-27.733334-19.2z" fill="#F0F0F0" p-id="6886"></path><path d="M339.2 494.933333a187.733333 53.333333 0 1 0 375.466667 0 187.733333 53.333333 0 1 0-375.466667 0Z" fill="#EBCB00" p-id="6887"></path><path d="M420.266667 366.933333s12.8 29.866667 12.8 74.666667c0 46.933333-21.333333 93.866667-21.333334 93.866667s49.066667 10.666667 115.2 10.666666 115.2-10.666667 115.2-10.666666-21.333333-49.066667-21.333333-96 12.8-74.666667 12.8-74.666667" fill="#BDBEC0" p-id="6888"></path><path d="M821.333333 245.333333c0-36.266667-32-68.266667-81.066666-91.733333v-6.4c0-34.133333-27.733333-61.866667-61.866667-61.866667-8.533333 0-17.066667 2.133333-25.6 6.4-25.6-42.666667-72.533333-70.4-125.866667-70.4-53.333333 0-100.266667 27.733333-125.866666 68.266667-8.533333-4.266667-17.066667-6.4-25.6-6.4-34.133333 0-61.866667 27.733333-61.866667 61.866667v6.4c-49.066667 23.466667-81.066667 55.466667-81.066667 91.733333 0 34.133333 27.733333 66.133333 74.666667 89.6 12.8 46.933333 53.333333 81.066667 104.533333 81.066667 32 0 61.866667-14.933333 81.066667-36.266667h72.533333c19.2 23.466667 49.066667 36.266667 81.066667 36.266667 49.066667 0 91.733333-34.133333 104.533333-81.066667 42.666667-23.466667 70.4-53.333333 70.4-87.466667z" fill="#F0F0F0" p-id="6889"></path><path d="M313.6 224v-6.4c0-34.133333 27.733333-61.866667 61.866667-61.866667 8.533333 0 17.066667 2.133333 25.6 6.4 27.733333-40.533333 74.666667-68.266667 125.866666-68.266666s100.266667 27.733333 125.866667 68.266666c8.533333-4.266667 17.066667-6.4 25.6-6.4 34.133333 0 61.866667 27.733333 61.866667 61.866667v6.4c32 14.933333 57.6 34.133333 70.4 55.466667 6.4-10.666667 10.666667-23.466667 10.666666-36.266667 0-36.266667-32-68.266667-81.066666-91.733333v-6.4c0-34.133333-27.733333-61.866667-61.866667-61.866667-8.533333 0-17.066667 2.133333-25.6 6.4C627.2 49.066667 580.266667 21.333333 526.933333 21.333333S426.666667 49.066667 401.066667 89.6c-8.533333-4.266667-17.066667-6.4-25.6-6.4-34.133333 0-61.866667 27.733333-61.866667 61.866667v6.4c-49.066667 23.466667-81.066667 55.466667-81.066667 91.733333 0 12.8 4.266667 23.466667 10.666667 36.266667 12.8-19.2 36.266667-40.533333 70.4-55.466667z" fill="#FFFFFF" p-id="6890"></path><path d="M473.6 539.733333s12.8-32 17.066667-89.6M571.733333 548.266667s-8.533333-12.8-8.533333-61.866667" fill="#F0F0F0" p-id="6891"></path></svg>