<svg width="60" height="60" xmlns="http://www.w3.org/2000/svg" xmlns:svg="http://www.w3.org/2000/svg" xmlns:xlink="http://www.w3.org/1999/xlink">
 <g class="layer">
  <title>Layer 1</title>
  <text fill="#ffffff" font-family="Cursive" font-size="36" font-weight="normal" id="svg_12" stroke="#000000" stroke-width="0" text-anchor="middle" transform="matrix(1, 0, 0, 1, 0, 0)" x="189.33" xml:space="preserve" y="34.28">LearnData</text>
  <text fill="#ffffff" font-family="Cursive" font-size="36" font-weight="normal" id="svg_13" stroke="#000000" stroke-width="0" text-anchor="middle" x="212.33" xml:space="preserve" y="73.28">开源工具导航</text>
  <use id="svg_15" transform="matrix(0.0260417, 0, 0, 0.0260417, 0, 0)" x="0" xlink:href="#svg_14" y="-345.6"/>
 </g>
 <defs>
  <symbol class="icon" data-spm-anchor-id="a313x.7781069.0.i18" height="3800" id="svg_14" viewBox="0 0 1024 1024" width="3800" xmlns="http://www.w3.org/2000/svg" xmlns:xlink="http://www.w3.org/1999/xlink">
   <path d="m501.9,879.5l-366.1,-170.1c-19.5,-9.1 -19.5,-35.2 0,-44.3l366.1,-170.1c7.4,-3.4 16.1,-3.4 23.5,0l362.9,170.1c19.4,9.1 19.4,35.1 0,44.2l-362.9,170.2c-7.4,3.5 -16.1,3.5 -23.5,0z" data-spm-anchor-id="a313x.7781069.0.i14" fill="#d6f5e2" id="svg_1" opacity="0.5"/>
   <path d="m501.9,679.2l-366.1,-170.1c-19.5,-9.1 -19.5,-35.2 0,-44.3l366.1,-170.1c7.4,-3.4 16.1,-3.4 23.5,0l362.9,170.1c19.4,9.1 19.4,35.1 0,44.2l-362.9,170.2c-7.4,3.4 -16.1,3.4 -23.5,0z" data-spm-anchor-id="a313x.7781069.0.i13" fill="#b1e9ca" id="svg_2"/>
   <path d="m501.9,528.9l-366.1,-170.1c-19.5,-9.1 -19.5,-35.2 0,-44.3l366.1,-170.1c7.4,-3.4 16.1,-3.4 23.5,0l362.9,170.1c19.4,9.1 19.4,35.1 0,44.2l-362.9,170.2c-7.4,3.5 -16.1,3.5 -23.5,0z" data-spm-anchor-id="a313x.7781069.0.i12" fill="#3eaf7c" id="svg_3"/>
  </symbol>
 </defs>
</svg>