<?xml version="1.0" standalone="no"?><!DOCTYPE svg PUBLIC "-//W3C//DTD SVG 1.1//EN" "http://www.w3.org/Graphics/SVG/1.1/DTD/svg11.dtd"><svg t="1701275054802" class="icon" viewBox="0 0 1024 1024" version="1.1" xmlns="http://www.w3.org/2000/svg" p-id="24721" xmlns:xlink="http://www.w3.org/1999/xlink" width="200" height="200"><path d="M510.293333 197.973333m-93.866666 0a93.866667 93.866667 0 1 0 187.733333 0 93.866667 93.866667 0 1 0-187.733333 0Z" fill="#FFC600" p-id="24722"></path><path d="M237.226667 670.72m-93.866667 0a93.866667 93.866667 0 1 0 187.733333 0 93.866667 93.866667 0 1 0-187.733333 0Z" fill="#FFC600" p-id="24723"></path><path d="M781.653333 670.72m-93.866666 0a93.866667 93.866667 0 1 0 187.733333 0 93.866667 93.866667 0 1 0-187.733333 0Z" fill="#FFC600" p-id="24724"></path><path d="M824.32 556.373333c-1.706667 0-1.706667 0 0 0-15.36 0-25.6-13.653333-25.6-27.306666v-5.12-11.946667c0-109.226667-61.44-208.213333-158.72-257.706667-11.946667-6.826667-17.066667-22.186667-11.946667-34.133333 6.826667-11.946667 22.186667-17.066667 34.133334-11.946667 116.053333 58.026667 187.733333 174.08 187.733333 303.786667v20.48c-1.706667 13.653333-13.653333 23.893333-25.6 23.893333zM510.293333 853.333333c-66.56 0-131.413333-18.773333-186.026666-56.32-11.946667-8.533333-15.36-23.893333-6.826667-35.84 8.533333-11.946667 23.893333-15.36 35.84-6.826666 47.786667 30.72 102.4 47.786667 158.72 47.786666 56.32 0 110.933333-17.066667 158.72-47.786666 11.946667-8.533333 27.306667-5.12 35.84 6.826666s5.12 27.306667-6.826667 35.84c-58.026667 35.84-122.88 56.32-189.44 56.32zM196.266667 556.373333c-13.653333 0-25.6-10.24-25.6-23.893333v-5.12-15.36c0-129.706667 71.68-245.76 187.733333-303.786667 11.946667-6.826667 27.306667-1.706667 34.133333 11.946667 6.826667 11.946667 1.706667 27.306667-11.946666 34.133333C281.6 303.786667 221.866667 402.773333 221.866667 512v17.066667c1.706667 15.36-10.24 27.306667-25.6 27.306666 1.706667 0 1.706667 0 0 0z" fill="#2491F7" p-id="24725"></path></svg>