<svg xmlns="http://www.w3.org/2000/svg" width="100" height="100" viewBox="0 0 48 48"><path fill="none" stroke="currentColor" stroke-linecap="round" stroke-linejoin="round" d="M42.097 8.182c-6.107-2.954-14.041-4.398-23.9.66c-4.896 2.512-8.815 6.698-11.131 11.586c-1.48 3.12-1.602 8.91-.06 12.564c1.427 3.38 3.504 6.187 6.599 8.14c2.817 1.777 6.707 1.539 8.95.87c2.448-.73 4.128-2.332 5.432-4.419c.72-1.329 1.465-3.043.408-5.65c-.485-1.197-1.505-2.23-2.517-3.021l-1.958 1.323s.522.786.538 1.235c.017.468-.176.96-.47 1.325a2.442 2.442 0 0 1-1.291.806c-.54.133-1.162.124-1.662-.119c-.471-.229-.864-.677-1.056-1.165c-.19-.482-.18-1.06-.021-1.553c.18-.557.585-1.05 1.047-1.41c.6-.47 2.112-.877 2.112-.877c4.748-12.694 9.32-17.6 18.98-20.294h0Z"/><path fill="none" stroke="currentColor" stroke-linecap="round" stroke-linejoin="round" d="M21.004 29.354c-2.994-7.316-3.373-12.646-2.807-20.512m1.761 21.922c-6.281-3.599-8.25-5.107-12.891-10.336M19.98 32.316c-5.912 1.04-8.157 1.03-12.974.675m14.029.491c-3.369 4.414-4.615 5.529-7.43 7.65m9.092-7.532c.247 4.921.118 6.073-.142 8.401m1.433-9.206l4 4.788m-3.53-6.114l3.937.463"/></svg>