<?xml version="1.0" standalone="no"?><!DOCTYPE svg PUBLIC "-//W3C//DTD SVG 1.1//EN" "http://www.w3.org/Graphics/SVG/1.1/DTD/svg11.dtd"><svg t="1701275801361" class="icon" viewBox="0 0 1024 1024" version="1.1" xmlns="http://www.w3.org/2000/svg" p-id="50907" xmlns:xlink="http://www.w3.org/1999/xlink" width="200" height="200"><path d="M896 298.6496V213.3504c0-47.1552-38.1952-85.3504-85.3504-85.3504H213.3504c-47.1552 0-85.3504 38.1952-85.3504 85.3504v85.2992c0 47.1552 38.1952 85.3504 85.3504 85.3504-47.1552 0-85.3504 38.1952-85.3504 85.3504v85.2992c0 47.1552 38.1952 85.3504 85.3504 85.3504-47.1552 0-85.3504 38.1952-85.3504 85.3504v85.2992c0 47.1552 38.1952 85.3504 85.3504 85.3504h597.2992c47.1552 0 85.3504-38.1952 85.3504-85.3504v-85.2992c0-47.1552-38.1952-85.3504-85.3504-85.3504 47.1552 0 85.3504-38.1952 85.3504-85.3504V469.3504c0-47.1552-38.1952-85.3504-85.3504-85.3504 47.1552 0 85.3504-38.1952 85.3504-85.3504z" fill="#FFFFFF" p-id="50908"></path><path d="M896 810.6496V768L213.3504 896h597.2992c47.1552 0 85.3504-38.1952 85.3504-85.3504z" fill="#6D83DC" fill-opacity=".8" p-id="50909"></path><path d="M896 554.6496V512L213.3504 640h597.2992c47.1552 0 85.3504-38.1952 85.3504-85.3504zM896 298.6496V256L213.3504 384h597.2992c47.1552 0 85.3504-38.1952 85.3504-85.3504z" fill="#6D83DC" fill-opacity=".8" opacity=".65" p-id="50910"></path></svg>