<svg xmlns="http://www.w3.org/2000/svg" width="100" height="100" viewBox="0 0 48 48"><g fill="none"><path stroke="#000" stroke-linecap="round" stroke-linejoin="round" stroke-width="4" d="M25 40H7C5.34315 40 4 38.6569 4 37V11C4 9.34315 5.34315 8 7 8H41C42.6569 8 44 9.34315 44 11V24.9412"/><path fill="#2F88FF" stroke="#000" stroke-width="4" d="M4 11C4 9.34315 5.34315 8 7 8H41C42.6569 8 44 9.34315 44 11V20H4V11Z"/><path stroke="#000" stroke-linecap="round" stroke-linejoin="round" stroke-width="4" d="M32 35H44"/><path stroke="#000" stroke-linecap="round" stroke-linejoin="round" stroke-width="4" d="M38 29V41"/><circle r="2" fill="#fff" transform="matrix(0 -1 -1 0 10 14)"/><circle r="2" fill="#fff" transform="matrix(0 -1 -1 0 16 14)"/></g></svg>