<?xml version="1.0" standalone="no"?><!DOCTYPE svg PUBLIC "-//W3C//DTD SVG 1.1//EN" "http://www.w3.org/Graphics/SVG/1.1/DTD/svg11.dtd"><svg t="1701275425797" class="icon" viewBox="0 0 1024 1024" version="1.1" xmlns="http://www.w3.org/2000/svg" p-id="40836" xmlns:xlink="http://www.w3.org/1999/xlink" width="200" height="200"><path d="M793.5 799.6H211.3c-60.5 0-109.6-49.1-109.6-109.6V321.4c0-60.5 49.1-109.6 109.6-109.6h582.2c60.5 0 109.6 49.1 109.6 109.6V690c0 60.6-49.1 109.6-109.6 109.6z" fill="#F7F7F7" p-id="40837"></path><path d="M792.4 815.8h-580c-70 0-126.9-56.9-126.9-126.9V322.6c0-70 56.9-126.9 126.9-126.9h579.9c70 0 126.9 56.9 126.9 126.9v366.3c0.1 70-56.9 126.9-126.8 126.9z m-580-587.7c-52.1 0-94.5 42.4-94.5 94.5v366.3c0 52.1 42.4 94.5 94.5 94.5h579.9c52.1 0 94.5-42.4 94.5-94.5V322.6c0-52.1-42.4-94.5-94.5-94.5H212.4z" fill="#9DA7B3" p-id="40838"></path><path d="M443.3 910.9c-8.9 0-16.2-7.2-16.2-16.2v-92.2c0-8.9 7.2-16.2 16.2-16.2s16.2 7.2 16.2 16.2v92.2c0 8.9-7.2 16.2-16.2 16.2zM561.5 910.9c-8.9 0-16.2-7.2-16.2-16.2v-92.2c0-8.9 7.2-16.2 16.2-16.2 8.9 0 16.2 7.2 16.2 16.2v92.2c0 8.9-7.3 16.2-16.2 16.2z" fill="#9DA7B3" p-id="40839"></path><path d="M660.9 925.3h-317c-8.9 0-16.2-7.2-16.2-16.2 0-8.9 7.2-16.2 16.2-16.2h316.9c8.9 0 16.2 7.2 16.2 16.2 0 8.9-7.2 16.2-16.1 16.2z" fill="#9DA7B3" p-id="40840"></path><path d="M494.3 645.9c-111.8 0-202.7-91-202.7-202.8 0-8.9 7.2-16.2 16.2-16.2h373.1c8.9 0 16.2 7.2 16.2 16.2 0 111.9-90.9 202.8-202.8 202.8zM324.7 459.4c8.2 86.4 81.1 154.2 169.6 154.2S655.8 545.8 664 459.4H324.7z" fill="#2D9AE5" p-id="40841"></path><path d="M681.6 580.7c-7.1 0-14.3-1.2-21.3-3.7-8.4-3-12.8-12.3-9.8-20.7 3-8.4 12.2-12.9 20.7-9.8 16.1 5.8 33.9-2.6 39.6-18.8 5.8-16.1-2.7-33.9-18.8-39.6-8.4-3-12.8-12.3-9.8-20.7 3-8.4 12.2-12.9 20.7-9.8 32.9 11.8 50.1 48.1 38.3 81-9.1 26-33.6 42.1-59.6 42.1z" fill="#2D9AE5" p-id="40842"></path><path d="M461.1 370c-5.2 0-10.3-2.5-13.4-7.2C430 336.3 413.4 274.6 477 231c57.6-39.5 39.6-126.4 39.4-127.3-1.9-8.7 3.7-17.3 12.4-19.2 8.7-1.9 17.3 3.7 19.2 12.4 0.9 4.4 22.5 109.2-52.8 160.8-52 35.7-24 82.1-20.6 87.2 4.9 7.5 2.8 17.5-4.6 22.4-2.8 1.8-5.9 2.7-8.9 2.7zM537.7 370c-5.2 0-10.3-2.5-13.4-7.2-14.8-22.1-21.4-65.6 20.8-94.5 34.9-24 23.8-77.7 23.7-78.2-1.9-8.7 3.7-17.3 12.4-19.2 8.8-1.7 17.4 3.7 19.2 12.4 0.7 3.1 15.6 75.6-37.1 111.7-29.2 20-15.2 45.1-12.1 50 4.8 7.5 2.7 17.5-4.7 22.4-2.6 1.7-5.7 2.6-8.8 2.6z" fill="#E6262E" p-id="40843"></path></svg>