<?xml version="1.0" standalone="no"?><!DOCTYPE svg PUBLIC "-//W3C//DTD SVG 1.1//EN" "http://www.w3.org/Graphics/SVG/1.1/DTD/svg11.dtd"><svg t="1701274352628" class="icon" viewBox="0 0 1024 1024" version="1.1" xmlns="http://www.w3.org/2000/svg" p-id="2699" xmlns:xlink="http://www.w3.org/1999/xlink" width="200" height="200"><path d="M74.9638795 512.51781531v219.94205234c0 19.67698173 10.48576 37.92997136 27.57366519 47.89791605l381.75933629 220.45986766c17.08790518 9.83849086 38.18887902 9.83849086 55.2767842 0l381.7593363-220.45986766c17.08790518-9.83849086 27.57366518-28.0914805 27.57366519-47.89791605V512.51781531c0-19.67698173-10.48576-37.92997136-27.57366519-47.89791606L539.57366518 244.28948543c-17.08790518-9.83849086-38.18887902-9.83849086-55.2767842 0L102.66699852 464.61989925c-17.08790518 9.96794469-27.70311902 28.22093431-27.70311902 47.89791606z" fill="#CEE8FF" p-id="2700"></path><path d="M511.87054617 71.20971852l381.7593363 220.45986765v440.79028148L511.87054617 952.79028148 130.11120987 732.45986765V291.66958617l381.7593363-220.45986765m0-55.27678421c-9.5795832 0-19.02971259 2.45962272-27.57366519 7.37886816L102.53754469 243.77167013c-17.08790518 9.83849086-27.57366518 28.0914805-27.57366519 47.89791604v440.79028148c0 19.67698173 10.48576 37.92997136 27.57366519 47.89791605l381.75933629 220.45986766c8.54395259 4.91924543 18.12353581 7.37886815 27.57366519 7.37886814s19.02971259-2.45962272 27.57366519-7.37886814l381.75933629-220.45986766c17.08790518-9.83849086 27.57366518-28.0914805 27.57366518-47.89791605V291.54013235c0-19.67698173-10.48576-37.92997136-27.57366518-47.89791605L539.44421136 23.31180247c-8.54395259-4.91924543-17.99408197-7.37886815-27.57366519-7.37886816z" fill="#3C99FE" p-id="2701"></path><path d="M935.05510717 307.46295309L538.40858075 536.59622717c-13.20429037 7.63777581-30.16274173 3.10689185-37.67106372-10.09739853-7.63777581-13.20429037-3.10689185-30.16274173 10.09739852-37.6710637l396.77598026-229.00382025c13.20429037-7.63777581 30.16274173-3.10689185 37.67106369 10.09739851 7.50832197 12.94538272 2.97743803 29.90383408-10.22685233 37.54160989zM935.31401482 548.50597925L621.25903013 729.87079111c-13.20429037 7.63777581-30.16274173 3.10689185-37.67106371-10.09739852-7.63777581-13.20429037-3.10689185-30.16274173 10.09739852-37.6710637l314.18443853-181.36481186c13.20429037-7.63777581 30.16274173-3.10689185 37.6710637 10.09739852 7.50832197 13.07483653 2.97743803 30.0332879-10.22685235 37.6710637z" fill="#3C99FE" p-id="2702"></path><path d="M511.87054617 967.03020247c-15.14609778 0-27.57366518-12.42756741-27.57366519-27.57366519V519.63777581c0-15.14609778 12.42756741-27.57366518 27.57366519-27.5736652 15.14609778 0 27.57366518 12.42756741 27.57366519 27.5736652v419.81876147c0 15.14609778-12.42756741 27.57366518-27.57366519 27.57366519z" fill="#3C99FE" p-id="2703"></path></svg>