<?xml version="1.0" standalone="no"?><!DOCTYPE svg PUBLIC "-//W3C//DTD SVG 1.1//EN" "http://www.w3.org/Graphics/SVG/1.1/DTD/svg11.dtd"><svg t="1701275603845" class="icon" viewBox="0 0 1024 1024" version="1.1" xmlns="http://www.w3.org/2000/svg" p-id="43127" xmlns:xlink="http://www.w3.org/1999/xlink" width="200" height="200"><path d="M590.222222 73.955556L859.022222 342.254933V876.088889c0 37.700267-30.5664 68.266667-68.266666 68.266667H233.244444c-37.700267 0-68.266667-30.5664-68.266666-68.266667V142.222222c0-37.700267 30.5664-68.266667 68.266666-68.266666h356.977778z m-11.764622 28.444444H233.244444a39.822222 39.822222 0 0 0-39.799466 38.456889L193.422222 142.222222v733.866667a39.822222 39.822222 0 0 0 38.456889 39.799467L233.244444 915.911111h557.511112a39.822222 39.822222 0 0 0 39.799466-38.456889L830.577778 876.088889V354.053689L578.4576 102.4z" fill="#85A5FF" p-id="43128"></path><path d="M854.755556 370.648178h-215.1424c-45.528178 0-82.551467-36.431644-83.5072-81.737956l-0.017067-1.792V73.955556h28.444444v213.162666c0 29.895111 23.819378 54.232178 53.515378 55.062756l1.564445 0.022755h215.1424v28.444445z" fill="#85A5FF" p-id="43129"></path><path d="M56.888889 489.244444m28.444444 0l853.333334 0q28.444444 0 28.444444 28.444445l0 284.444444q0 28.444444-28.444444 28.444445l-853.333334 0q-28.444444 0-28.444444-28.444445l0-284.444444q0-28.444444 28.444444-28.444445Z" fill="#85A5FF" p-id="43130"></path><path d="M334.210844 737.450667c46.08 0 72.704-27.904 72.704-59.648 0-26.88-14.085689-42.752-37.637688-52.224l-23.808-9.472c-16.896-6.656-28.672-10.752-28.672-21.504 0-9.984 8.453689-15.616 22.528-15.616 14.848 0 26.624 5.12 39.173688 14.592l22.778312-28.672c-16.64-16.64-39.936-25.088-61.952-25.088-40.448 0-69.12 25.6-69.12 57.6 0 27.648 18.688 44.288 38.656 52.224l24.325688 10.24c16.384 6.912 26.874311 10.496 26.874312 21.504 0 10.24-7.936 16.64-24.826312 16.64-15.104 0-32.768-7.936-46.08-19.456l-26.112 31.488c19.712 18.176 46.336 27.392 71.168 27.392z m246.522312 50.176c15.109689 0 27.397689-2.56 34.816-6.4l-8.192-33.28c-5.882311 2.048-13.312 3.584-21.504 3.584-15.36 0-32.512-4.864-41.216-17.92 36.613689-11.264 59.904-45.312 59.904-96 0-62.208-35.328-97.792-87.290312-97.792-51.973689 0-87.301689 35.328-87.301688 97.792 0 53.76 26.112 88.832 66.56 97.792 13.824 30.464 42.757689 52.224 84.224 52.224z m-63.488-87.552c-25.088 0-40.448-22.784-40.448-62.464 0-36.864 15.36-58.624 40.448-58.624s40.709689 21.76 40.709688 58.624c0 39.68-15.621689 62.464-40.709688 62.464z m242.688 33.792v-38.4h-74.24V543.146667h-45.818312V733.866667h120.064z" fill="#FFFFFF" p-id="43131"></path></svg>