<?xml version="1.0" standalone="no"?><!DOCTYPE svg PUBLIC "-//W3C//DTD SVG 1.1//EN" "http://www.w3.org/Graphics/SVG/1.1/DTD/svg11.dtd"><svg t="1700288729155" class="icon" viewBox="0 0 1024 1024" version="1.1" xmlns="http://www.w3.org/2000/svg" p-id="6520" xmlns:xlink="http://www.w3.org/1999/xlink" width="200" height="200"><path d="M187.532257 234.589091l223.107879 277.410909-223.107879 277.410909C113.680136 881.229576 174.251287 1024 287.077469 1024h449.846303c112.795152 0 173.366303-142.770424 99.514182-234.589091l-223.107879-277.410909 223.107879-277.410909C910.290075 142.770424 849.718924 0 736.954802 0H287.077469C174.251287 0 113.680136 142.770424 187.532257 234.589091z" fill="#C1D0FF" p-id="6521"></path><path d="M548.197469 485.158788c-12.039758 19.362909-40.401455 21.659152-54.365091 3.630545L230.912621 149.47297c-7.633455-9.867636-9.122909-23.955394-0.248243-32.73697 32.519758-32.209455 90.701576-24.824242 165.546667-15.297939 88.746667 11.264 200.890182 25.537939 321.380848-19.797334 162.691879-61.191758 48.810667 96.007758-64.853333 252.89697-38.446545 53.061818-76.862061 106.092606-104.541091 150.621091zM558.53056 558.545455a31.030303 31.030303 0 1 1-62.060606 0 31.030303 31.030303 0 0 1 62.060606 0z m-46.545455 93.090909a15.515152 15.515152 0 1 0 0-31.030303 15.515152 15.515152 0 0 0 0 31.030303z" fill="#0F62FE" p-id="6522"></path><path d="M187.532257 234.589091l176.190061 219.073939a93.090909 93.090909 0 0 1 0 116.67394l-176.190061 219.073939C113.680136 881.229576 174.251287 1024 287.077469 1024h449.846303c112.795152 0 173.366303-142.770424 99.514182-234.589091l-176.190061-219.073939a93.090909 93.090909 0 0 1 0-116.67394l176.190061-219.073939C910.290075 142.770424 849.718924 0 736.954802 0H287.077469C174.251287 0 113.680136 142.770424 187.532257 234.589091z" fill="#E8E8E8" fill-opacity=".1" p-id="6523"></path><path d="M316.587287 907.077818a31.030303 31.030303 0 1 0-49.927757-36.864 31.030303 31.030303 0 0 0 49.927757 36.864z m5.399273-111.740121a31.030303 31.030303 0 0 0 49.896727 36.864l110.623031-149.752242a31.030303 31.030303 0 0 0-49.896728-36.895031l-110.62303 149.783273z" fill="#FFFFFF" p-id="6524"></path><path d="M211.704863 215.133091C182.75359 179.137939 179.805712 132.840727 195.879408 94.983758 211.891045 57.219879 245.18656 31.030303 287.077469 31.030303h449.846303c41.828848 0 75.155394 26.189576 91.198061 63.953455 16.042667 37.85697 13.125818 84.123152-15.856485 120.149333l-176.190061 219.073939a124.121212 124.121212 0 0 0 0 155.58594l176.190061 219.073939c28.982303 35.995152 31.899152 82.292364 15.825454 120.149333-16.011636 37.763879-49.338182 63.953455-91.19806 63.953455H287.077469c-41.890909 0-75.186424-26.189576-91.229091-63.953455-16.042667-37.85697-13.125818-84.123152 15.856485-120.149333l176.190061-219.073939a124.121212 124.121212 0 0 0 0-155.58594l-176.190061-219.073939z m-24.203636 19.456l176.252121 219.073939a93.090909 93.090909 0 0 1 0 116.67394l-176.252121 219.073939C113.711166 881.229576 174.282318 1024 287.108499 1024h449.846303c112.795152 0 173.366303-142.770424 99.514182-234.589091l-176.19006-219.073939a93.090909 93.090909 0 0 1 0-116.67394l176.19006-219.073939C910.290075 142.770424 849.718924 0 736.954802 0H287.077469C174.251287 0 113.680136 142.770424 187.532257 234.589091z" fill="#FFFFFF" fill-opacity=".6" p-id="6525"></path></svg>