<?xml version="1.0" standalone="no"?><!DOCTYPE svg PUBLIC "-//W3C//DTD SVG 1.1//EN" "http://www.w3.org/Graphics/SVG/1.1/DTD/svg11.dtd"><svg t="1693204583217" class="icon" viewBox="0 0 1024 1024" version="1.1" xmlns="http://www.w3.org/2000/svg" p-id="6524" xmlns:xlink="http://www.w3.org/1999/xlink" width="200" height="200"><path d="M12.225939 285.820121a31.402667 31.402667 0 0 1 6.330182-53.496242L529.997576 2.792727c9.650424-4.344242 20.852364-3.506424 29.789091 2.172121l436.658424 279.52097c19.393939 12.412121 19.269818 40.773818-0.217212 52.999758l-486.958546 306.020848c-11.139879 6.981818-25.444848 6.299152-35.87103-1.737697L12.225939 285.789091z" fill="#C1D0FF" p-id="6525"></path><path d="M74.255515 531.114667a31.030303 31.030303 0 0 1 6.268121-52.813576l427.876849-193.008485a31.030303 31.030303 0 0 1 29.540848 2.172121l365.102546 234.837334a31.030303 31.030303 0 0 1-0.217212 52.348121l-407.365819 257.241212a31.030303 31.030303 0 0 1-35.591757-1.737697L74.255515 531.114667z" fill="#0F62FE" p-id="6526"></path><path d="M95.759515 628.301576l-44.714667 20.076606a31.402667 31.402667 0 0 0-6.330181 53.496242L453.66303 1017.483636c10.395152 8.067879 24.731152 8.750545 35.871031 1.737697l431.941818-271.42206a31.402667 31.402667 0 0 0 0.217212-53.061818l-47.352243-30.285576-384.775757 241.819151c-11.170909 6.981818-25.506909 6.299152-35.902061-1.737697l-357.903515-276.169697z" fill="#0F62FE" p-id="6527"></path><path d="M12.225939 285.820121a31.402667 31.402667 0 0 1 6.330182-53.496242L529.997576 2.792727c9.650424-4.344242 20.852364-3.506424 29.789091 2.172121l436.658424 279.52097c19.393939 12.412121 19.269818 40.773818-0.217212 52.999758l-486.958546 306.020848c-11.139879 6.981818-25.444848 6.299152-35.87103-1.737697L12.225939 285.789091z" fill="#E8E8E8" fill-opacity=".1" p-id="6528"></path><path d="M397.777455 475.508364a31.402667 31.402667 0 1 0 37.546666-50.331152L221.866667 265.743515a31.402667 31.402667 0 1 0-37.577697 50.331152l213.488485 159.433697z m106.58909 10.022788a31.402667 31.402667 0 1 0-37.546666 50.300121 31.402667 31.402667 0 0 0 37.546666-50.300121z" fill="#FFFFFF" p-id="6529"></path><path d="M542.875152 31.402667L31.402667 260.964848l461.203394 355.917576 486.958545-305.989818-436.689454-279.489939 16.911515-26.437819 436.689454 279.48994c19.393939 12.412121 19.269818 40.773818-0.217212 52.999757l-486.958545 306.020849c-11.139879 6.981818-25.444848 6.299152-35.871031-1.737697L12.225939 285.789091a31.402667 31.402667 0 0 1 6.330182-53.496243L529.997576 2.792727c9.650424-4.344242 20.852364-3.506424 29.789091 2.172121l-16.942546 26.468849z" fill="#FFFFFF" fill-opacity=".6" p-id="6530"></path></svg>