<?xml version="1.0" standalone="no"?><!DOCTYPE svg PUBLIC "-//W3C//DTD SVG 1.1//EN" "http://www.w3.org/Graphics/SVG/1.1/DTD/svg11.dtd"><svg t="1691120943231" class="icon" viewBox="0 0 1273 1024" version="1.1" xmlns="http://www.w3.org/2000/svg" p-id="18227" xmlns:xlink="http://www.w3.org/1999/xlink" width="248.6328125" height="200"><path d="M1051.675676 512C1051.675676 764.208432 847.235459 968.648649 595.027027 968.648649S138.378378 764.208432 138.378378 512 342.818595 55.351351 595.027027 55.351351 1051.675676 259.791568 1051.675676 512z" fill="#C1D0FF" p-id="18228"></path><path d="M1030.476108 143.415351c26.015135 33.127784 14.003892 91.883243-27.288216 163.535568-57.454703 99.687784-171.589189 224.422054-319.072865 340.16173-134.780541 105.831784-270.252973 182.825514-376.942703 219.827892-93.903568 32.57427-165.472865 34.124108-194.56-2.961298-62.214919-79.207784 92.851892-304.709189 346.333406-503.697297 253.481514-198.988108 509.343135-296.074378 571.530378-216.866595zM166.386162 821.746162c19.096216 24.326919 58.893838 29.806703 112.086487 19.234595 99.715459-19.815784 246.534919-96.117622 392.441081-210.667243 162.926703-127.889297 279.801081-268.204973 310.105946-362.05319 11.347027-35.037405 10.572108-63.598703-4.345081-82.611892-54.880865-69.908757-280.76973 15.775135-504.527568 191.432649-223.757838 175.657514-360.64173 374.728649-305.760865 444.665081zM1130.163892 525.837838c4.012973 0 7.970595 1.024 11.45773 2.933621 3.487135 1.937297 6.365405 4.704865 8.385729 8.025946l120.00173 199.458595a21.254919 21.254919 0 0 1 0 21.974486l-120.00173 199.430919a22.444973 22.444973 0 0 1-8.385729 8.025946 23.635027 23.635027 0 0 1-11.45773 2.961298h-240.00346a23.635027 23.635027 0 0 1-11.457729-2.933622 22.444973 22.444973 0 0 1-8.38573-8.025946l-120.00173-199.458595a21.254919 21.254919 0 0 1 0-21.974486l120.00173-199.430919a22.444973 22.444973 0 0 1 8.38573-8.025946 23.635027 23.635027 0 0 1 11.457729-2.961297h240.00346zM1010.162162 672.352865c-43.118703 0-78.045405 33.515243-78.045405 74.890378 0 41.375135 34.926703 74.890378 78.045405 74.890379 43.118703 0 78.045405-33.515243 78.045406-74.890379 0-41.375135-34.926703-74.890378-78.045406-74.890378z" fill="#0F62FE" p-id="18229"></path><path d="M1051.675676 512C1051.675676 764.208432 847.235459 968.648649 595.027027 968.648649S138.378378 764.208432 138.378378 512 342.818595 55.351351 595.027027 55.351351 1051.675676 259.791568 1051.675676 512z" fill="#E8E8E8" fill-opacity=".1" p-id="18230"></path><path d="M595.027027 940.972973C358.123243 940.972973 166.054054 748.903784 166.054054 512 166.054054 275.096216 358.123243 83.027027 595.027027 83.027027 831.930811 83.027027 1024 275.096216 1024 512 1024 748.903784 831.930811 940.972973 595.027027 940.972973z m0 27.675676C847.235459 968.648649 1051.675676 764.208432 1051.675676 512S847.235459 55.351351 595.027027 55.351351 138.378378 259.791568 138.378378 512 342.818595 968.648649 595.027027 968.648649z" fill="#FFFFFF" fill-opacity=".6" p-id="18231"></path><path d="M306.618811 304.95827c-8.717838 14.446703-2.518486 32.906378 12.537081 40.489514 15.083243 7.583135 33.349189 1.411459 42.260757-12.924541a340.078703 340.078703 0 0 1 153.6-132.594162c15.470703-6.725189 24.243892-23.884108 18.930162-39.908324-5.286054-16.024216-22.638703-24.825081-38.192433-18.321298a401.297297 401.297297 0 0 0-189.135567 163.258811z m-36.614919 79.152433c-5.369081 15.996541 4.649514 32.657297 21.005838 36.808648l1.688216 0.442811c15.415351 3.90227 30.996757-5.479784 36.172108-20.535351 5.230703-15.027892-1.21773-32.020757-15.775135-38.469189l-1.577514-0.719568c-15.443027-6.863568-33.625946 0.083027-39.271783 15.996541a412.229189 412.229189 0 0 0-2.214054 6.476108z" fill="#FFFFFF" p-id="18232"></path><path d="M670.91373 630.313514c-145.906162 114.549622-292.725622 190.851459-392.441081 210.667243l28.727351 25.959784c106.662054-37.002378 242.134486-114.023784 376.942703-219.827892 147.428324-115.739676 261.590486-240.501622 319.045189-340.16173l-22.140541-38.690595c-30.332541 93.820541-147.206919 234.136216-310.133621 362.05319z" fill="#0F62FE" p-id="18233"></path></svg>