<?xml version="1.0" standalone="no"?><!DOCTYPE svg PUBLIC "-//W3C//DTD SVG 1.1//EN" "http://www.w3.org/Graphics/SVG/1.1/DTD/svg11.dtd"><svg t="1709551790736" class="icon" viewBox="0 0 1024 1024" version="1.1" xmlns="http://www.w3.org/2000/svg" p-id="8244" xmlns:xlink="http://www.w3.org/1999/xlink" width="200" height="200"><path d="M512 76.8A76.8 76.8 0 0 1 588.8 0h294.4A76.8 76.8 0 0 1 960 76.8v230.4A76.8 76.8 0 0 1 883.2 384H588.8A76.8 76.8 0 0 1 512 307.2V76.8zM64 396.8A76.8 76.8 0 0 1 140.8 320h294.4A76.8 76.8 0 0 1 512 396.8v230.4A76.8 76.8 0 0 1 435.2 704H140.8A76.8 76.8 0 0 1 64 627.2V396.8zM512 716.8A76.8 76.8 0 0 1 588.8 640h294.4a76.8 76.8 0 0 1 76.8 76.8v230.4a76.8 76.8 0 0 1-76.8 76.8H588.8A76.8 76.8 0 0 1 512 947.2v-230.4z" fill="#FF8066" fill-opacity=".4" p-id="8245"></path><path d="M588.8 0A76.8 76.8 0 0 0 512 76.8v230.4A76.8 76.8 0 0 0 588.8 384H704v96H512V396.8A76.8 76.8 0 0 0 435.2 320H140.8A76.8 76.8 0 0 0 64 396.8v230.4A76.8 76.8 0 0 0 140.8 704h294.4A76.8 76.8 0 0 0 512 627.2V544h192V640H588.8A76.8 76.8 0 0 0 512 716.8v230.4A76.8 76.8 0 0 0 588.8 1024h294.4a76.8 76.8 0 0 0 76.8-76.8v-230.4a76.8 76.8 0 0 0-76.8-76.8H768V384h115.2A76.8 76.8 0 0 0 960 307.2V76.8A76.8 76.8 0 0 0 883.2 0H588.8z m294.4 64c7.04 0 12.8 5.76 12.8 12.8v230.4a12.8 12.8 0 0 1-12.8 12.8H588.8a12.8 12.8 0 0 1-12.8-12.8V76.8c0-7.04 5.76-12.8 12.8-12.8h294.4z m-448 320c7.04 0 12.8 5.76 12.8 12.8v230.4a12.8 12.8 0 0 1-12.8 12.8H140.8a12.8 12.8 0 0 1-12.8-12.8V396.8c0-7.04 5.76-12.8 12.8-12.8h294.4z m153.6 320h294.4c7.04 0 12.8 5.76 12.8 12.8v230.4a12.8 12.8 0 0 1-12.8 12.8H588.8a12.8 12.8 0 0 1-12.8-12.8v-230.4c0-7.04 5.76-12.8 12.8-12.8z" fill="#FF8066" p-id="8246"></path></svg>