<?xml version="1.0" standalone="no"?><!DOCTYPE svg PUBLIC "-//W3C//DTD SVG 1.1//EN" "http://www.w3.org/Graphics/SVG/1.1/DTD/svg11.dtd"><svg t="1709551611968" class="icon" viewBox="0 0 1024 1024" version="1.1" xmlns="http://www.w3.org/2000/svg" p-id="4264" xmlns:xlink="http://www.w3.org/1999/xlink" width="200" height="200"><path d="M998.851216 447.868081l-96.039052-34.197274a55.084232 55.084232 0 0 1-29.487469-29.794631l-15.204477-36.756951a54.879458 54.879458 0 0 1-0.051194-41.978689l43.668076-91.738795a38.036788 38.036788 0 0 0-5.631287-38.34395l-46.893268-46.893268a37.832014 37.832014 0 0 0-38.395143-5.5289l-91.636408 43.616882a55.544974 55.544974 0 0 1-42.081077-0.051193l-36.705757-15.204477a55.237812 55.237812 0 0 1-29.794631-29.589857L576.453449 25.367927a39.674981 39.674981 0 0 0-31.074469-23.958569S531.351954 0.12952 512.205576 0.12952c-18.992797 0-33.12221 1.279838-33.12221 1.279838a39.521401 39.521401 0 0 0-31.023275 23.958569L413.811623 121.458172c-5.631288 13.36151-16.381928 23.958569-29.794631 29.487469l-36.654563 15.204477a55.544974 55.544974 0 0 1-42.029883 0.102387l-91.841182-43.616882a38.139175 38.139175 0 0 0-38.395143 5.5289l-46.842075 46.893268a37.729627 37.729627 0 0 0-5.477707 38.292756l43.565689 91.789989c5.477707 11.518543 5.477707 30.408953-0.102387 41.978689l-15.204477 36.808144a54.930651 54.930651 0 0 1-29.48747 29.794631l-96.039051 34.197274a39.674981 39.674981 0 0 0-23.958569 31.023276S0.270336 492.969575 0.270336 512.013566c0 19.095184 1.279838 33.275791 1.279838 33.275791 1.945354 13.822251 11.057801 25.596762 23.958569 31.023275l96.090245 34.146081c12.030478 4.249062 25.340794 17.661766 29.538663 29.794631l15.153283 36.75695c5.631288 13.412703 5.631288 28.514793 0.153581 41.97869l-43.668076 91.687601a37.934401 37.934401 0 0 0 5.580094 38.395143l46.893268 46.893268c10.75064 8.702899 25.494375 10.904221 38.292756 5.631288l91.789989-43.668076a55.289006 55.289006 0 0 1 41.978689 0l36.756951 15.204477c13.463897 5.528901 24.214537 16.177154 29.845824 29.589857l34.197274 96.090244a39.521401 39.521401 0 0 0 30.920889 23.907376c22.064409 1.689386 44.282398 1.689386 66.346807 0a39.726175 39.726175 0 0 0 31.074469-24.060956l34.197274-96.090245c5.631288-13.36151 16.381928-23.958569 29.794631-29.436276l36.705757-15.204477c11.569736-5.631288 30.408953-5.631288 42.029883-0.102387l91.738795 43.616882c12.798381 5.37532 27.542116 3.276386 38.395143-5.477707l46.842074-47.046848a37.883208 37.883208 0 0 0 5.631288-38.241563l-43.668076-91.841182a54.674684 54.674684 0 0 1 0-41.927496l15.25567-36.75695c5.528901-13.463897 16.12596-24.163343 29.48747-29.845825l96.090245-34.094887a39.572594 39.572594 0 0 0 23.958569-31.023275s1.228645-14.078219 1.228644-33.173404c-0.102387-19.043991-1.331032-33.12221-1.331031-33.12221a39.572594 39.572594 0 0 0-23.958569-31.023275zM307.43148 512.013566A204.774096 204.774096 0 1 1 716.979672 512.06476 204.774096 204.774096 0 0 1 307.43148 512.06476z" fill="#5C73C1" p-id="4265"></path></svg>