<?xml version="1.0" standalone="no"?><!DOCTYPE svg PUBLIC "-//W3C//DTD SVG 1.1//EN" "http://www.w3.org/Graphics/SVG/1.1/DTD/svg11.dtd"><svg t="1700288859315" class="icon" viewBox="0 0 1148 1024" version="1.1" xmlns="http://www.w3.org/2000/svg" p-id="6806" xmlns:xlink="http://www.w3.org/1999/xlink" width="224.21875" height="200"><path d="M0.00031 175.228893a62.06055 62.06055 0 0 1 50.175955-60.91243l511.999534-99.886454A62.06055 62.06055 0 0 1 636.120944 75.342438v873.316055a62.06055 62.06055 0 0 1-73.945145 60.912429l-511.999534-99.917485A62.06055 62.06055 0 0 1 0.00031 848.741008V175.259923z" fill="#C1D0FF" p-id="6807"></path><path d="M279.272784 217.212855a93.090824 93.090824 0 0 1 93.090824-93.090825h682.666046a93.090824 93.090824 0 0 1 93.090825 93.090825v426.200824l-234.030333-168.339241c-27.834157-19.983497-68.980301-15.608228-91.942704 9.867628l-156.361555 173.273054a57.56116 57.56116 0 0 0-18.618165-21.969434l-111.429717-80.18223c-27.834157-20.014527-68.980301-15.608228-91.942704 9.836597L279.272784 748.264978V217.212855z m614.027078 280.917078L1148.120479 681.394736V806.788076a93.090824 93.090824 0 0 1-93.090825 93.090825H492.388711l163.622639-181.309896c3.909815-4.344238 7.043872-9.02981 9.402174-13.901563l181.930501-201.603696a35.467604 35.467604 0 0 1 45.955837-4.933813z m-256.465222 192.201522L447.767176 899.878901H372.363608a93.090824 93.090824 0 0 1-93.090824-93.090825v-12.5052l189.68807-210.261143a35.467604 35.467604 0 0 1 45.986867-4.902783l111.460747 80.1512a27.0584 27.0584 0 0 1 10.426172 31.030275zM977.453967 403.394504a108.605962 108.605962 0 1 0 0-217.211924 108.605962 108.605962 0 0 0 0 217.211924z m0-49.151956a59.454007 59.454007 0 1 1 0-118.908013 59.454007 59.454007 0 0 1 0 118.908013z" fill="#0B77FF" p-id="6808"></path><path d="M0.00031 161.978965a62.06055 62.06055 0 0 1 50.175955-60.912429l511.999534-99.917485A62.06055 62.06055 0 0 1 636.120944 62.123541v873.316055a62.06055 62.06055 0 0 1-73.945145 60.912429l-511.999534-99.917485A62.06055 62.06055 0 0 1 0.00031 835.49108V161.978965z" fill="#E8E8E8" fill-opacity=".1" p-id="6809"></path><path d="M568.102582 31.651811A31.030275 31.030275 0 0 1 605.090669 62.061481v873.347084a31.030275 31.030275 0 0 1-36.988087 30.4407l-511.999535-99.917485a31.030275 31.030275 0 0 1-25.072462-30.409669V161.978965a31.030275 31.030275 0 0 1 25.072462-30.440699l511.999535-99.917485zM50.176265 101.035506A62.06055 62.06055 0 0 0 0.00031 161.978965v673.512115a62.06055 62.06055 0 0 0 50.175955 60.91243l511.999534 99.917485a62.06055 62.06055 0 0 0 73.945145-60.91243V62.061481A62.06055 62.06055 0 0 0 562.175799 1.180081l-511.999534 99.917485z" fill="#FFFFFF" fill-opacity=".6" p-id="6810"></path><path d="M434.424158 270.584927a31.030275 31.030275 0 0 1 21.224708-29.4167l31.030275-10.333082A31.030275 31.030275 0 0 1 527.514982 260.251846v441.436689a31.030275 31.030275 0 0 1-40.835841 29.416701l-31.030275-10.333082a31.030275 31.030275 0 0 1-21.224708-29.44773V270.615958z" fill="#FFFFFF" p-id="6811"></path></svg>