<?xml version="1.0" encoding="utf-8"?>
<!-- Generator: Adobe Illustrator 26.1.0, SVG Export Plug-In . SVG Version: 6.00 Build 0)  -->
<svg version="1.1" id="Layer_1" focusable="false" xmlns="http://www.w3.org/2000/svg" xmlns:xlink="http://www.w3.org/1999/xlink"
	 x="0px" y="0px" viewBox="0 0 263.8 276" style="enable-background:new 0 0 263.8 276;" xml:space="preserve">
<style type="text/css">
	.st0{fill:#77bc1f;}
	.st1{fill:#D7E7E7;}
	.st2{fill:#77bc1f;}
</style>
<ellipse class="st0" cx="131.9" cy="59.4" rx="131.9" ry="59.4"/>
<ellipse class="st1" cx="131.9" cy="138" rx="131.9" ry="59.4"/>
<ellipse class="st0" cx="131.9" cy="216.6" rx="131.9" ry="59.4"/>
<path class="st2" d="M33,98.7c24.2,12.3,59.5,20.1,98.9,20.1s74.7-7.8,98.9-20.1c-24.2-12.3-59.5-20.1-98.9-20.1
	c-17,0-33.3,1.5-48.2,4.1C64,86.2,46.7,91.7,33,98.7z"/>
<path class="st2" d="M33,177.3c24.2,12.3,59.5,20.1,98.9,20.1s74.7-7.8,98.9-20.1c-24.2-12.3-59.5-20.1-98.9-20.1
	c-19.7,0-38.4,1.9-55.2,5.4S45.1,171.1,33,177.3z"/>
</svg>
