<?xml version="1.0" standalone="no"?><!DOCTYPE svg PUBLIC "-//W3C//DTD SVG 1.1//EN" "http://www.w3.org/Graphics/SVG/1.1/DTD/svg11.dtd"><svg t="1689873033547" class="icon" viewBox="0 0 1264 1024" version="1.1" xmlns="http://www.w3.org/2000/svg" p-id="6814" xmlns:xlink="http://www.w3.org/1999/xlink" width="246.875" height="200"><path d="M0 331.294118a90.352941 90.352941 0 0 1 90.352941-90.352942h1084.235294a90.352941 90.352941 0 0 1 90.352941 90.352942v572.235294a90.352941 90.352941 0 0 1-90.352941 90.352941H90.352941a90.352941 90.352941 0 0 1-90.352941-90.352941V331.294118z" fill="#C1D0FF" p-id="6815"></path><path d="M706.529882 55.657412c7.378824-74.209882 115.561412-74.209882 122.940236 0 4.909176 49.061647 62.464 72.884706 100.592941 41.682823 57.705412-47.254588 134.204235 29.214118 86.949647 86.91953-31.232 38.159059-7.378824 95.713882 41.682823 100.592941 74.209882 7.408941 74.209882 115.591529 0 122.970353-49.061647 4.909176-72.884706 62.464-41.682823 100.592941 47.254588 57.735529-29.214118 134.204235-86.91953 86.949647-38.159059-31.232-95.713882-7.378824-100.592941 41.682824-7.439059 74.209882-115.591529 74.209882-122.970353 0-4.909176-49.061647-62.464-72.884706-100.592941-41.682824-57.705412 47.254588-134.204235-29.214118-86.949647-86.919529 31.232-38.159059 7.378824-95.713882-41.682823-100.592942-74.209882-7.408941-74.209882-115.591529 0-122.970352 49.061647-4.909176 72.884706-62.464 41.682823-100.592942-47.254588-57.735529 29.214118-134.204235 86.91953-86.949647 38.159059 31.232 95.713882 7.378824 100.592941-41.682823z m218.895059 290.695529a157.424941 157.424941 0 1 0-314.849882 0 157.424941 157.424941 0 0 0 314.849882 0zM768 415.623529a69.270588 69.270588 0 1 0 0-138.541176 69.270588 69.270588 0 0 0 0 138.541176zM256.722824 26.624c3.523765-35.508706 55.265882-35.508706 58.789647 0a29.545412 29.545412 0 0 0 48.128 19.937882c27.587765-22.588235 64.150588 13.974588 41.562353 41.562353a29.545412 29.545412 0 0 0 19.937882 48.128c35.508706 3.523765 35.508706 55.265882 0 58.789647a29.545412 29.545412 0 0 0-19.937882 48.128c22.588235 27.587765-13.974588 64.150588-41.562353 41.562353a29.545412 29.545412 0 0 0-48.128 19.937883c-3.523765 35.508706-55.265882 35.508706-58.789647 0a29.545412 29.545412 0 0 0-48.128-19.937883c-27.587765 22.588235-64.150588-13.974588-41.562353-41.562353a29.545412 29.545412 0 0 0-19.937883-48.128c-35.508706-3.523765-35.508706-55.265882 0-58.789647a29.545412 29.545412 0 0 0 19.937883-48.128c-22.588235-27.587765 13.974588-64.150588 41.562353-41.562353A29.545412 29.545412 0 0 0 256.722824 26.624zM361.411765 165.647059a75.294118 75.294118 0 1 0-150.588236 0 75.294118 75.294118 0 0 0 150.588236 0zM286.117647 198.776471a33.129412 33.129412 0 1 0 0-66.258824 33.129412 33.129412 0 0 0 0 66.258824z" fill="#0F62FE" p-id="6816"></path><path d="M0 331.294118a90.352941 90.352941 0 0 1 90.352941-90.352942h1084.235294a90.352941 90.352941 0 0 1 90.352941 90.352942v572.235294a90.352941 90.352941 0 0 1-90.352941 90.352941H90.352941a90.352941 90.352941 0 0 1-90.352941-90.352941V331.294118z" fill="#E8E8E8" fill-opacity=".1" p-id="6817"></path><path d="M1174.588235 271.058824a60.235294 60.235294 0 0 1 60.235294 60.235294v572.235294a60.235294 60.235294 0 0 1-60.235294 60.235294H90.352941a60.235294 60.235294 0 0 1-60.235294-60.235294V331.294118a60.235294 60.235294 0 0 1 60.235294-60.235294h1084.235294zM90.352941 240.941176a90.352941 90.352941 0 0 0-90.352941 90.352942v572.235294a90.352941 90.352941 0 0 0 90.352941 90.352941h1084.235294a90.352941 90.352941 0 0 0 90.352941-90.352941V331.294118a90.352941 90.352941 0 0 0-90.352941-90.352942H90.352941z" fill="#FFFFFF" fill-opacity=".6" p-id="6818"></path><path d="M451.373176 702.223059a176.368941 176.368941 0 0 1-58.036705-174.893177l99.328 83.84753a75.294118 75.294118 0 0 0 106.10447-8.975059l6.294588-7.469177a75.294118 75.294118 0 0 0-8.975058-106.10447l-99.297883-83.817412a176.459294 176.459294 0 0 1 229.104941 235.369412l188.837647 159.412706a48.097882 48.097882 0 0 1-62.042352 73.487059l-188.867765-159.412706a176.459294 176.459294 0 0 1-212.449883-11.444706z" fill="#FFFFFF" p-id="6819"></path></svg>